# xmcd
#
# Track frame offsets: 
#        150
#        15775
#        41877
#        64530
#        81225
#        98576
#        119550
#        144235
#        156957
#        175090
#        191536
#        210310
#        229726
#
# Disc length: 3160 seconds
#
# Revision: 0
# Processed by: cddbd v1.5.2PL0 Copyright (c) Steve Scherf et al.
# Submitted via: ExactAudioCopy v0.95b3
#
DISCID=9e0c560d
DTITLE=Zach Prather and Slight Return - Freak
DYEAR=2008
DGENRE=Blues
TTITLE0=Steam Roller
TTITLE1=Mercy
TTITLE2=It Ain't You
TTITLE3=Freak
TTITLE4=All You're Lovin'
TTITLE5=Cadillack 69
TTITLE6=Thru' It All
TTITLE7=In Love With You
TTITLE8=Ain't No Sunshine
TTITLE9=Provider
TTITLE10=I Can Make It
TTITLE11=Wound Up Tight
TTITLE12=Guest Room
EXTD=
EXTT0=
EXTT1=
EXTT2=
EXTT3=
EXTT4=
EXTT5=
EXTT6=
EXTT7=
EXTT8=
EXTT9=
EXTT10=
EXTT11=
EXTT12=
PLAYORDER=
